P3
31 20
255
232 247 252
231 246 253
232 247 254
232 245 253
232 245 253
231 246 253
228 247 253
228 247 253
227 244 252
231 245 254
229 243 252
227 244 251
229 244 251
230 243 249
230 243 249
229 244 249
223 242 246
232 247 254
233 246 255
227 237 247
231 244 252
230 243 251
231 241 250
231 241 250
229 242 250
229 242 250
228 241 249
227 242 249
227 242 249
224 241 248
226 241 248
231 246 253
230 245 252
231 246 253
231 245 254
231 246 253
233 246 252
232 246 249
237 248 254
239 252 255
227 240 246
229 242 248
229 244 249
229 243 252
227 244 254
230 244 253
227 242 249
236 251 255
228 241 247
105 116 122
213 223 232
235 245 255
230 240 249
230 240 249
231 242 248
228 241 249
227 242 249
227 242 249
228 241 249
226 241 248
225 240 247
226 241 248
229 246 254
231 246 253
231 246 253
228 247 254
226 245 251
240 251 255
130 134 135
108 109 111
207 215 218
244 255 255
235 246 250
231 242 246
229 242 250
229 243 252
228 242 251
240 250 255
210 220 230
69 78 85
111 120 125
243 252 255
229 239 248
231 241 251
231 241 250
228 241 247
227 242 249
227 241 250
226 240 249
226 241 248
227 240 248
226 241 248
226 241 248
229 246 253
232 245 253
232 245 253
228 247 254
225 244 250
238 248 250
137 133 132
101 96 93
67 67 67
161 168 174
221 228 236
232 237 241
231 237 237
224 233 230
230 236 234
177 178 180
29 33 42
45 52 58
199 208 213
239 248 255
228 239 245
230 243 251
228 241 249
228 241 249
227 242 249
227 242 249
226 241 248
224 241 248
226 241 248
226 241 248
226 241 248
231 246 253
233 246 254
232 245 253
228 245 252
224 243 249
243 253 255
166 164 165
106 98 96
143 141 142
50 53 60
64 64 72
142 140 143
191 187 178
217 214 199
218 212 200
131 122 117
22 20 23
73 74 79
197 204 212
234 244 253
227 240 248
228 241 247
227 242 249
227 242 249
228 241 249
227 240 248
226 241 248
224 241 248
223 240 247
225 240 247
227 240 248
231 246 253
232 245 253
231 244 252
227 244 251
226 243 250
237 248 254
214 217 222
88 86 91
99 97 100
78 74 75
51 43 41
55 45 36
125 113 99
146 134 118
118 105 96
73 60 54
68 58 56
120 116 117
218 221 226
232 241 248
227 240 248
227 240 249
226 241 248
226 241 248
226 241 248
227 240 248
227 240 248
225 240 247
225 240 247
226 239 245
226 239 245
229 243 252
229 244 251
229 244 251
227 244 251
227 244 251
228 241 249
239 246 254
79 79 87
55 51 50
141 131 121
172 157 138
158 139 122
98 81 71
77 66 62
54 45 46
30 21 22
55 44 40
118 110 108
203 201 202
237 242 248
229 237 248
227 240 249
227 240 248
226 241 246
227 240 246
227 240 248
228 238 248
227 237 247
228 238 247
228 239 245
227 237 246
229 243 252
229 244 251
229 244 251
227 244 251
227 244 251
230 243 251
245 250 254
78 74 75
80 70 61
214 197 177
189 168 141
144 126 106
84 73 69
55 50 57
33 31 42
43 42 48
49 41 39
86 78 76
128 124 123
226 227 231
233 240 248
229 239 249
227 240 249
225 238 246
226 239 245
228 238 247
228 238 250
228 236 249
228 236 247
227 237 246
226 236 245
230 245 252
231 244 252
231 244 252
229 243 252
227 244 252
233 244 248
226 226 224
104 92 80
127 109 89
161 139 116
115 97 77
129 116 107
90 84 86
21 21 31
57 61 70
167 172 178
45 45 47
86 81 85
82 76 78
169 169 171
241 249 252
224 237 245
226 239 248
227 237 246
227 237 246
227 237 247
226 236 248
228 236 249
228 236 247
226 236 245
225 235 245
229 242 250
232 243 249
233 242 249
230 243 252
229 243 252
232 243 247
221 220 215
167 152 133
154 132 108
82 61 44
50 36 33
118 112 116
126 125 131
64 65 70
90 93 98
221 224 229
54 57 64
119 117 120
67 61 63
166 166 168
240 249 254
222 235 244
226 236 246
228 236 247
227 235 246
226 236 248
224 236 248
226 236 248
226 236 246
226 236 246
224 234 246
232 242 251
232 242 251
232 242 251
232 242 252
229 242 251
234 243 250
229 230 225
198 186 170
150 129 108
68 50 38
37 26 30
73 71 82
116 115 121
65 63 64
159 157 160
248 247 253
141 140 148
56 52 53
59 53 53
211 212 214
230 240 249
224 236 248
225 233 244
223 230 238
224 234 243
221 233 245
223 235 249
224 234 246
225 235 247
225 235 247
225 235 247
232 242 251
232 242 252
232 242 252
233 242 251
233 242 249
232 239 245
223 227 228
218 214 203
173 157 141
122 104 90
61 47 46
45 40 46
47 45 48
139 135 136
232 227 231
206 203 214
236 231 238
179 175 174
147 143 140
220 222 221
225 232 238
214 223 232
177 184 192
207 214 220
219 229 238
220 232 244
221 233 247
223 233 245
224 234 246
223 233 245
223 233 245
233 242 251
230 243 252
230 243 252
232 241 248
238 243 247
217 222 225
210 214 213
235 232 223
209 197 181
154 137 121
135 118 110
140 130 128
178 174 173
249 247 248
233 231 236
213 211 222
225 223 226
231 229 230
203 202 198
205 206 201
212 212 210
173 177 178
202 207 210
223 233 235
219 228 235
218 228 237
222 232 244
221 231 243
222 232 244
222 232 242
221 231 243
232 242 251
232 242 252
232 242 252
231 242 248
236 244 246
205 209 208
205 206 201
232 229 220
229 221 208
207 195 181
204 191 182
214 207 201
206 205 201
221 225 224
223 227 230
232 232 240
209 213 214
190 191 193
204 203 201
201 196 190
187 183 172
149 149 141
219 225 225
220 230 232
220 229 234
222 231 238
221 231 241
219 231 245
222 232 244
222 232 242
221 231 243
232 242 251
232 242 251
232 242 251
231 241 250
235 245 247
210 212 207
202 198 189
222 218 207
235 235 227
223 225 220
219 220 215
229 229 227
226 232 230
221 230 229
220 225 228
218 219 223
211 216 219
222 223 225
194 189 185
182 173 164
169 163 151
138 138 130
210 214 215
221 229 232
220 228 231
221 230 235
220 230 239
219 231 243
219 231 243
221 231 243
222 232 244
230 243 251
233 242 251
233 242 251
229 242 250
234 245 249
206 207 202
184 176 165
206 199 189
216 222 220
221 235 238
227 238 242
228 238 239
227 237 236
227 239 239
229 237 239
234 235 237
232 239 245
217 217 217
180 173 165
170 160 150
161 154 144
157 156 152
201 205 208
223 228 232
223 233 235
221 231 233
218 229 235
220 230 240
219 231 243
219 231 243
221 231 243
232 243 249
229 243 252
228 242 253
234 243 250
234 233 228
191 182 167
194 182 166
212 205 195
211 213 210
222 227 230
227 235 237
227 235 237
226 234 236
229 239 241
230 240 242
230 241 243
228 238 237
219 224 220
188 183 177
156 144 132
167 155 141
182 178 169
199 201 200
225 230 233
228 236 238
223 233 235
209 222 231
216 228 242
218 230 244
220 230 240
220 230 240
231 242 248
228 242 251
226 240 249
236 245 250
208 204 201
152 140 128
166 152 139
198 192 180
229 230 224
226 230 229
227 233 233
224 230 228
219 225 221
223 229 225
226 235 232
224 233 232
224 230 228
228 228 226
214 207 201
167 158 149
164 157 149
189 188 183
209 211 210
228 230 229
223 223 223
230 230 230
218 223 227
216 225 234
214 224 234
216 226 236
217 225 238
229 242 248
228 243 250
224 239 246
241 249 252
182 178 175
67 54 46
82 68 57
139 131 120
194 194 186
219 221 216
224 229 225
222 225 218
217 220 211
213 216 205
214 219 212
215 220 216
221 221 219
218 214 211
223 215 212
225 217 214
209 208 206
194 198 197
215 217 214
228 224 221
225 214 212
207 195 195
193 191 192
220 225 229
219 229 238
221 231 243
222 230 243
229 242 248
228 243 250
224 239 246
243 251 254
159 155 152
59 46 40
75 58 51
112 102 93
151 148 139
211 214 207
217 222 216
220 223 214
215 217 204
206 208 194
211 212 204
206 208 205
219 219 217
221 216 212
221 211 209
209 203 203
234 235 237
211 217 217
205 207 204
226 218 215
229 211 209
216 200 200
173 168 165
174 178 179
125 134 141
118 126 139
126 134 147
