P3
56 56
255
255 255 255
255 255 253
255 255 253
255 255 253
255 255 255
255 255 255
254 254 252
255 255 253
255 255 255
254 254 254
255 255 255
255 255 255
255 255 255
255 255 255
255 255 255
255 255 255
255 255 250
255 253 250
255 252 250
255 252 251
254 255 253
251 255 254
249 253 254
249 255 255
248 254 254
252 255 255
255 255 255
255 254 255
252 254 253
248 253 249
253 255 252
255 254 252
255 255 253
254 255 255
254 255 255
254 255 255
255 255 255
255 255 255
255 255 255
255 255 255
255 255 255
255 255 255
255 255 255
255 255 255
255 255 255
255 255 255
255 255 255
255 255 255
255 255 255
255 255 255
255 255 255
255 255 255
255 255 255
255 255 255
255 255 255
255 255 255
255 255 255
255 255 255
255 255 255
255 255 255
255 255 255
255 255 255
255 255 255
255 255 255
255 255 255
255 255 255
255 255 255
255 255 255
255 255 255
255 255 255
255 254 255
255 255 253
252 255 255
251 255 255
250 254 255
251 253 252
252 253 248
255 254 251
255 254 251
255 254 251
255 254 251
246 238 235
218 206 206
211 199 201
251 242 243
255 255 253
252 254 253
253 254 255
254 255 253
255 255 253
255 255 253
255 255 255
254 255 255
254 255 255
255 255 255
255 255 255
255 255 255
255 255 255
255 255 255
255 255 255
255 255 255
255 255 255
255 255 255
255 255 255
255 255 255
255 255 255
255 255 255
255 255 255
255 255 255
255 255 255
255 255 255
255 255 255
255 255 255
254 255 255
254 255 255
255 255 255
255 255 255
255 255 255
255 255 255
255 255 255
255 255 255
255 255 255
255 255 255
255 255 255
255 255 255
255 255 255
255 255 255
255 254 255
250 255 255
249 255 255
251 255 254
255 255 251
255 253 246
254 239 232
228 209 202
195 176 169
155 135 126
112 89 81
106 81 76
104 79 75
136 115 112
232 218 217
255 254 253
247 251 254
253 255 254
255 255 255
255 255 253
255 255 255
254 255 255
254 255 255
254 254 254
255 255 255
255 255 255
255 255 255
255 255 253
255 255 253
255 255 255
255 255 255
255 255 255
255 255 255
255 255 255
255 255 255
255 255 255
255 255 255
255 255 255
255 255 255
255 255 255
255 255 255
255 255 253
255 255 255
255 255 255
255 255 255
255 255 255
255 255 255
255 255 255
255 255 255
255 255 255
255 255 255
255 255 255
255 255 255
255 254 255
255 255 255
254 255 255
250 254 255
255 254 245
255 253 244
252 235 225
221 199 188
189 165 153
136 112 100
97 70 59
90 62 50
95 63 50
102 68 56
114 78 66
128 91 82
112 78 68
114 87 78
203 188 183
255 254 251
255 254 252
253 253 253
253 254 255
254 255 255
255 255 255
255 255 253
255 255 255
255 255 255
255 255 255
255 255 255
255 255 255
255 255 255
255 255 255
255 255 255
255 255 255
255 255 255
255 255 255
255 255 255
255 255 255
255 255 255
255 255 255
255 255 255
255 255 255
255 255 255
255 255 253
255 255 255
255 254 255
254 254 254
255 255 255
255 255 255
253 253 253
255 255 255
255 255 255
255 255 255
255 255 255
255 254 255
255 255 255
254 255 255
251 253 252
254 255 255
255 244 226
212 183 165
148 107 89
130 89 71
111 78 63
90 62 50
79 52 41
88 58 47
100 67 52
106 69 53
109 70 55
118 76 62
126 87 72
115 79 65
98 70 59
188 165 157
255 250 245
255 253 252
250 251 253
253 254 255
255 255 255
255 255 253
255 254 255
255 255 255
255 255 255
255 255 255
255 255 255
255 255 255
255 255 255
255 255 255
255 255 255
255 255 255
255 255 255
255 255 255
255 255 255
255 255 255
255 255 255
255 255 255
255 255 255
255 255 255
255 255 255
255 254 255
255 254 255
254 254 254
254 255 255
254 255 255
253 253 253
255 255 255
255 255 255
255 255 255
255 254 255
255 255 255
252 255 255
252 254 253
255 254 251
224 213 209
168 141 120
146 111 91
143 100 81
123 80 63
100 67 52
82 55 44
88 64 54
101 72 64
109 77 66
131 95 81
115 78 62
133 96 80
135 99 83
133 100 85
129 93 81
100 64 52
128 108 99
232 217 210
255 253 250
253 252 250
253 255 254
254 255 255
254 254 254
255 255 255
255 255 253
255 255 255
255 255 255
255 255 255
255 255 255
255 255 255
255 255 255
255 255 255
255 255 255
255 255 255
255 255 255
255 255 255
255 255 255
255 255 255
255 255 255
255 255 255
255 255 255
255 255 255
255 255 255
255 255 255
255 255 255
255 255 255
255 255 255
254 255 255
255 255 255
255 255 255
255 254 255
254 255 255
247 251 252
255 255 253
203 190 184
111 86 79
105 78 61
112 83 67
118 89 75
111 82 68
103 75 63
100 73 64
93 68 63
109 81 77
121 91 83
137 103 93
143 107 93
131 97 85
110 80 70
128 98 88
138 104 94
162 124 111
101 72 58
103 75 61
224 204 193
255 252 245
253 253 251
250 254 255
255 255 255
255 255 253
255 255 253
255 255 255
255 255 255
255 255 255
255 255 255
255 255 255
255 255 255
255 255 255
255 255 255
255 255 255
255 255 255
255 255 255
255 255 255
255 255 255
255 255 255
255 255 255
255 255 255
255 255 255
255 255 255
255 255 255
255 255 255
255 255 255
255 255 255
255 255 255
255 255 255
254 254 254
255 255 255
251 253 252
255 255 253
202 192 190
98 78 71
104 75 67
105 77 65
103 79 69
107 85 74
106 82 70
101 73 61
106 78 67
103 78 71
106 81 76
132 103 97
130 98 87
125 91 81
98 68 58
73 44 38
97 68 60
129 99 88
131 102 88
156 119 103
88 55 40
94 66 54
186 168 158
251 242 237
255 255 251
252 254 251
255 255 255
255 255 255
255 255 255
255 255 255
255 255 255
255 255 255
255 254 255
255 255 255
255 255 255
255 255 255
255 255 255
255 255 255
255 255 255
255 255 255
255 255 255
255 255 255
255 255 255
255 255 255
255 255 255
255 255 255
255 254 255
255 254 255
255 255 255
255 255 255
255 255 255
254 254 254
253 255 254
250 251 253
255 254 255
214 203 201
85 66 60
81 58 52
98 75 67
107 79 68
115 88 77
106 78 67
100 68 57
115 81 69
109 77 64
113 85 74
119 92 85
126 97 89
136 106 96
122 92 82
97 67 57
71 38 31
98 65 56
116 88 76
118 95 79
141 99 85
149 115 105
56 29 20
99 75 65
166 144 131
255 245 236
253 252 248
250 254 255
254 255 255
255 254 255
255 255 253
255 255 255
255 255 255
255 255 253
255 254 255
254 255 255
255 255 255
255 255 255
255 255 255
255 255 255
255 255 255
255 255 255
255 255 255
255 255 255
255 255 255
255 255 255
255 255 255
255 255 255
255 255 255
255 255 255
255 255 255
255 255 255
254 255 255
248 252 251
255 255 253
217 207 205
87 68 62
63 40 34
63 44 37
92 75 68
111 84 73
103 73 62
95 61 49
106 68 55
123 87 73
125 91 79
125 93 82
134 102 91
131 101 91
131 103 92
118 89 81
109 76 67
102 64 53
126 88 75
153 121 106
185 159 144
152 108 95
152 122 114
65 41 37
56 28 17
125 90 71
201 175 160
255 254 248
248 253 255
252 255 255
255 255 253
255 255 253
255 255 255
255 255 255
255 255 253
255 255 253
254 255 255
255 255 255
255 255 255
255 255 255
255 255 255
255 255 255
255 255 255
255 255 255
255 255 255
255 255 255
255 255 255
255 255 255
255 255 255
255 255 255
255 254 255
255 255 255
254 255 255
250 254 253
255 255 253
255 252 247
120 103 96
41 22 15
56 37 30
67 50 43
90 73 66
97 72 65
91 63 52
93 61 50
100 68 55
91 61 50
121 89 78
125 91 79
125 91 79
144 112 101
136 107 99
119 90 82
123 91 80
127 89 76
135 96 79
171 134 118
139 103 89
144 101 85
163 130 121
90 65 60
37 7 0
104 65 48
154 121 104
249 234 227
254 255 255
251 255 255
255 255 253
255 255 253
254 255 255
254 255 255
255 255 253
255 254 255
255 255 255
255 255 255
255 255 255
255 255 255
255 255 255
255 255 255
255 255 255
255 255 255
255 255 255
255 255 255
255 255 255
255 255 255
254 255 255
255 255 255
255 255 255
255 255 255
253 255 254
254 254 252
255 249 244
175 156 149
70 50 41
43 26 18
42 29 23
71 56 51
89 70 64
92 69 63
94 71 63
97 73 63
66 44 33
52 27 20
74 45 37
88 56 45
92 58 46
136 104 93
135 106 98
111 82 76
100 67 58
108 72 58
112 73 56
130 88 72
151 105 90
142 99 80
153 117 101
128 98 87
56 24 13
60 24 12
120 91 77
216 198 188
255 253 249
253 253 251
255 255 255
255 255 255
255 255 255
255 255 255
255 255 255
255 255 255
255 255 255
255 255 255
255 255 255
255 255 255
255 255 255
255 255 255
255 255 255
255 255 255
255 255 255
255 255 255
255 255 255
255 255 255
255 255 255
255 255 255
255 255 255
253 254 255
255 255 253
248 237 231
126 106 95
66 39 28
61 38 30
32 17 12
40 29 23
75 60 55
92 73 67
89 64 57
101 77 67
91 68 60
61 41 34
54 31 25
47 20 13
65 35 25
77 48 34
113 84 70
106 78 67
94 64 56
89 56 47
93 59 47
110 73 55
134 91 72
169 122 102
180 138 114
181 140 118
167 130 112
87 55 44
38 11 2
85 63 52
196 178 166
255 253 244
255 253 250
254 255 255
254 255 255
255 255 255
255 255 253
255 255 255
255 255 255
255 255 255
255 255 255
255 255 255
255 255 255
255 255 255
255 255 255
255 255 255
255 255 255
255 255 255
255 253 254
254 255 255
254 255 255
255 255 253
255 255 253
254 255 255
249 253 254
255 253 250
205 181 171
88 55 40
66 36 25
53 34 27
31 18 12
42 29 23
83 68 63
85 67 65
84 56 45
118 90 79
98 71 62
108 85 79
99 76 70
72 47 40
92 64 53
92 63 49
89 61 49
100 72 61
99 66 57
100 66 56
100 64 50
106 69 50
114 73 51
130 86 61
143 102 80
171 126 103
196 153 134
146 110 98
37 12 5
57 39 29
171 154 144
255 253 244
255 254 251
254 255 255
254 255 255
254 254 254
255 255 253
255 255 255
254 255 255
255 255 255
255 255 255
255 255 255
255 255 255
255 255 255
255 255 255
255 255 255
255 255 255
255 255 255
255 254 255
254 255 255
254 255 255
255 254 253
255 254 253
252 255 255
251 255 255
255 253 248
170 138 125
99 57 41
72 40 27
54 37 30
29 18 12
41 26 21
85 67 63
66 51 48
92 62 52
113 83 73
93 64 56
91 68 62
88 69 63
101 78 70
103 73 63
110 78 67
88 58 48
99 71 60
114 85 71
127 91 75
122 85 67
125 87 68
118 80 59
118 77 55
135 94 76
149 102 82
169 121 101
192 150 134
79 51 40
27 8 1
155 142 134
255 253 248
255 253 252
255 255 255
255 255 255
255 255 253
255 255 253
255 255 255
254 255 255
255 255 255
255 255 255
255 255 255
255 255 255
255 255 255
255 255 255
255 255 255
255 255 255
255 255 255
255 254 255
254 255 255
254 255 255
255 254 253
255 254 253
251 255 255
251 255 255
255 244 240
153 117 105
98 52 36
71 39 26
54 40 31
41 30 24
40 23 16
79 60 54
61 43 41
92 62 54
100 70 62
83 56 49
103 84 78
89 74 67
106 83 75
106 73 64
91 54 46
82 49 42
94 67 58
99 70 56
126 89 70
139 98 78
135 97 78
123 84 67
117 78 61
127 85 69
153 104 87
179 127 106
188 141 123
177 143 131
50 31 24
125 114 110
255 254 251
254 253 251
254 254 254
255 255 253
255 255 253
255 255 253
254 255 255
254 255 255
255 255 255
255 255 255
255 255 255
255 255 255
255 255 255
255 255 255
255 255 255
255 255 255
255 255 255
255 255 251
254 255 255
254 255 255
255 254 252
255 254 252
250 254 255
254 255 255
244 231 222
134 102 79
96 54 29
74 41 24
54 34 27
52 35 28
39 20 13
61 44 36
58 44 41
82 60 47
103 76 65
95 67 55
121 93 81
116 90 77
96 68 56
89 59 49
69 41 30
71 47 37
81 59 46
91 65 52
103 75 61
109 82 65
106 77 61
93 59 47
117 77 69
149 113 101
171 133 122
179 135 124
176 129 113
198 153 134
165 134 114
94 78 65
253 248 242
255 255 253
254 254 254
255 255 255
255 255 255
255 255 255
255 255 255
255 255 255
254 255 255
255 255 255
255 255 255
255 255 255
255 255 255
255 255 255
255 255 255
255 255 255
255 255 255
255 255 253
255 255 255
255 255 255
255 255 253
254 254 252
251 253 250
255 253 249
194 175 161
109 74 52
96 55 33
71 39 24
59 36 28
53 34 27
40 21 14
55 38 31
62 46 46
76 54 43
102 75 66
88 61 52
96 72 60
86 62 50
71 44 35
75 46 40
67 40 33
76 54 43
88 66 53
90 64 51
101 73 61
93 65 51
88 59 43
97 59 46
136 89 79
164 125 118
192 149 142
148 101 91
130 82 68
173 130 113
197 164 147
127 107 96
217 208 203
255 255 253
252 254 253
255 255 255
255 255 255
254 254 254
255 255 255
254 254 254
255 255 255
255 255 255
255 255 255
255 255 255
255 255 255
255 255 255
255 255 255
255 255 255
255 255 255
255 255 255
255 255 255
255 255 255
254 255 255
253 255 252
255 254 249
254 239 232
121 93 79
89 54 35
84 49 30
73 43 32
59 37 26
50 32 22
49 32 24
42 25 18
51 35 35
58 35 27
78 53 48
82 57 52
80 55 48
91 66 59
83 56 49
76 48 44
69 44 39
79 56 48
94 70 58
100 73 62
102 74 63
87 61 48
91 62 48
106 64 50
159 107 94
82 41 35
134 89 83
151 101 92
187 138 124
186 140 125
159 120 105
170 142 130
213 200 192
255 255 253
252 253 255
254 255 255
255 255 255
255 255 255
255 255 255
255 255 255
255 254 253
255 255 255
255 255 255
255 255 255
255 255 255
255 255 255
255 255 255
255 255 255
255 255 255
254 255 255
255 254 255
255 254 255
254 255 255
249 253 252
255 254 248
199 179 168
79 47 34
74 42 27
73 44 30
73 46 35
59 35 23
53 33 22
51 34 24
45 28 21
39 21 17
42 25 17
59 39 32
74 49 44
69 41 37
76 51 44
92 67 60
89 64 59
85 62 56
83 60 52
92 68 58
102 74 63
107 79 68
97 69 58
92 63 49
103 63 51
144 95 81
130 87 78
141 92 85
159 105 95
185 131 119
174 125 108
141 96 77
138 102 86
220 200 191
255 254 251
252 253 255
254 255 255
255 255 253
254 254 254
255 255 255
255 255 255
255 254 255
255 255 255
255 255 255
255 255 255
255 255 255
255 255 255
255 255 255
255 255 255
255 255 255
254 255 255
255 254 255
255 254 255
252 255 255
250 254 253
255 253 246
145 119 106
72 39 22
65 36 22
63 39 27
73 49 37
64 38 25
58 34 22
51 33 21
53 36 28
38 19 12
31 18 10
50 31 25
65 40 35
76 49 42
71 44 37
78 54 44
87 63 53
82 59 51
81 58 50
87 62 55
87 58 50
104 76 65
102 74 62
90 60 49
104 68 56
124 84 74
155 111 98
175 126 112
187 130 119
172 116 103
186 135 118
153 106 86
123 82 64
199 172 161
255 253 250
250 251 253
254 255 255
255 254 252
255 255 253
254 255 255
255 255 255
255 254 255
255 255 255
255 255 255
255 255 255
255 255 255
255 255 255
255 255 255
255 255 255
255 255 255
252 255 255
255 255 253
255 255 253
251 255 255
252 255 255
249 236 228
122 89 72
83 45 26
67 35 22
60 38 27
69 45 35
70 42 30
67 39 27
56 36 25
50 31 24
50 30 23
26 13 7
42 25 18
51 31 24
60 35 28
62 38 28
64 40 28
67 43 31
64 42 31
63 43 34
77 54 46
70 46 36
96 68 56
100 72 60
98 70 58
101 71 60
120 88 77
125 82 66
150 101 86
168 115 101
128 76 63
157 108 93
158 113 94
153 115 96
155 129 116
238 228 226
255 255 255
253 255 254
255 255 251
255 255 253
255 255 255
254 255 255
255 255 255
255 255 255
255 255 255
255 255 255
255 255 255
255 255 255
255 255 255
255 255 255
255 255 255
254 255 255
255 255 253
255 255 253
252 253 255
255 255 253
227 209 197
111 75 53
93 51 27
76 43 28
62 39 31
69 45 35
72 44 32
73 43 32
65 41 31
53 30 24
58 35 29
37 19 15
34 16 12
43 26 19
43 26 18
47 29 15
53 31 18
59 35 25
59 36 28
55 35 28
66 46 37
73 51 38
94 70 58
104 77 66
91 64 53
97 69 58
107 77 67
122 79 62
146 99 83
168 116 102
181 131 120
191 144 134
128 86 72
122 89 74
123 103 92
218 210 207
255 255 255
253 253 253
255 255 253
255 255 253
255 255 255
255 255 255
255 255 255
255 255 255
255 255 255
255 255 255
255 255 255
255 255 255
255 255 255
255 255 255
255 255 255
255 255 255
255 255 253
255 255 255
254 254 254
255 254 248
175 152 138
101 63 40
100 59 37
78 46 31
66 41 34
65 41 31
69 41 29
74 44 33
68 41 32
56 31 24
55 28 21
45 28 21
23 8 3
31 17 14
31 21 12
35 21 10
40 22 10
51 28 22
54 31 25
50 30 23
54 34 23
75 56 42
97 75 62
92 70 59
84 60 50
96 69 58
107 77 67
124 81 64
149 103 88
176 128 116
218 170 158
194 147 137
133 95 84
109 82 73
194 181 175
251 247 244
253 253 251
255 255 253
255 254 252
255 254 255
255 255 255
255 255 255
255 254 255
255 255 255
255 255 255
255 255 255
255 255 255
255 255 255
255 255 255
255 255 255
255 255 255
255 254 255
255 255 255
253 255 254
255 253 252
255 245 238
122 95 78
89 54 32
97 62 42
76 47 33
72 45 36
66 42 32
67 41 28
72 46 33
70 43 32
61 34 25
54 26 15
49 37 25
27 14 8
24 13 11
28 19 14
29 19 10
36 21 14
44 25 19
46 22 18
50 27 19
52 30 19
60 40 29
96 74 63
99 76 68
89 65 55
99 70 62
106 76 66
140 101 86
138 98 88
118 75 66
155 108 98
166 122 109
136 104 93
176 159 152
255 254 251
253 253 251
255 255 253
255 255 253
255 255 255
255 255 255
255 254 255
255 254 255
255 255 255
255 255 255
255 255 255
255 255 255
255 255 255
255 255 255
255 255 255
255 255 255
255 255 255
255 255 255
255 255 255
254 254 254
255 254 253
255 241 234
116 90 77
78 45 26
91 58 41
79 51 39
78 51 42
79 52 41
76 50 37
76 50 37
75 48 37
66 39 28
57 29 17
54 40 29
38 23 16
26 12 11
29 19 17
27 18 13
31 20 14
40 22 18
44 23 18
52 29 21
53 31 18
56 34 23
81 58 50
93 68 61
88 61 54
95 66 58
123 93 83
140 110 99
94 61 52
123 86 78
153 113 103
136 102 90
134 112 99
228 219 214
255 255 253
254 254 254
255 255 255
255 255 255
255 255 255
255 255 255
255 254 255
255 255 255
255 255 255
255 255 255
255 255 255
255 255 255
255 255 255
255 255 255
255 255 255
255 255 255
255 255 255
254 255 255
255 255 255
255 255 255
255 253 254
255 253 248
132 114 104
71 42 28
84 52 39
85 57 45
84 57 48
88 64 52
90 63 52
89 62 51
88 61 50
77 50 39
66 38 27
59 39 30
49 30 24
25 11 10
26 16 14
26 19 13
28 19 12
35 20 15
50 31 25
60 40 31
64 42 29
57 35 24
67 44 36
84 59 52
88 61 54
95 66 58
130 100 90
91 68 60
84 55 49
126 93 88
134 104 96
141 121 112
218 208 199
255 255 250
253 253 253
254 254 255
255 255 255
254 255 255
255 255 255
255 255 255
255 255 255
255 255 255
254 255 255
255 255 255
255 255 255
255 255 255
255 255 255
255 255 255
255 255 255
255 255 255
255 255 255
254 255 255
255 255 255
255 253 254
254 254 254
255 255 251
224 213 209
97 77 70
64 37 28
72 48 36
80 58 47
88 64 54
97 70 61
95 66 58
93 65 54
92 63 55
72 42 34
64 37 30
59 38 33
24 10 7
19 11 8
24 19 13
28 19 12
34 21 15
52 35 28
64 46 36
63 43 32
62 40 27
78 54 44
91 67 57
92 68 58
102 75 66
94 65 57
73 48 41
90 63 54
105 76 70
94 71 65
107 93 90
246 242 239
254 254 252
254 254 254
255 255 255
255 255 255
254 255 255
255 255 255
255 255 255
255 255 255
255 255 255
255 255 255
255 255 255
255 255 255
255 255 255
255 255 255
255 255 255
255 255 255
255 255 255
255 255 255
255 255 253
254 254 254
255 255 255
255 255 255
254 254 252
255 254 253
240 230 231
168 154 151
113 99 90
86 69 59
77 57 48
79 56 50
77 52 45
82 58 48
95 66 58
84 54 46
67 40 31
65 44 39
18 7 5
18 13 9
21 16 10
27 18 11
28 17 13
33 20 14
39 25 16
55 37 25
71 47 37
82 55 44
83 59 47
80 56 44
74 49 42
82 54 50
89 57 46
108 78 68
87 60 51
64 45 39
35 24 20
174 170 169
255 255 255
250 250 250
255 255 255
255 255 255
255 255 255
255 255 255
254 255 255
255 255 255
255 255 255
255 255 255
255 255 255
255 255 255
255 255 255
255 255 255
255 255 255
255 255 255
255 255 255
255 255 255
255 255 253
255 255 255
255 255 255
255 255 253
255 255 253
253 253 255
253 252 255
255 255 255
255 252 247
228 219 212
197 182 177
166 151 148
135 120 115
106 89 81
95 71 61
79 50 42
76 52 40
74 57 50
14 4 2
17 12 9
18 13 9
22 13 8
22 13 8
25 14 8
30 16 7
47 27 16
74 47 36
77 49 38
88 64 52
101 79 68
75 52 44
66 38 35
101 64 48
127 95 84
91 68 60
63 48 43
30 21 16
139 134 131
255 253 254
252 252 252
255 255 255
254 254 252
255 255 255
255 255 255
255 255 255
255 255 255
255 255 255
255 255 255
255 255 255
255 255 255
255 255 255
255 255 255
255 255 255
255 255 255
255 255 255
255 255 255
255 255 255
255 255 255
255 255 255
255 255 255
255 255 255
255 255 255
253 254 255
250 252 251
254 254 252
255 255 251
255 254 253
255 254 253
255 254 253
254 247 241
208 191 183
96 72 62
97 75 64
49 34 29
9 1 0
12 8 7
17 12 8
24 15 10
28 17 13
28 17 11
37 23 14
53 31 20
65 37 26
90 61 53
88 63 56
65 45 36
46 23 15
72 45 38
113 77 63
121 92 84
80 61 57
45 35 33
36 32 29
72 71 67
101 99 100
190 188 189
255 255 255
254 254 254
255 255 255
255 255 255
255 255 255
255 255 255
255 255 255
255 255 255
255 255 255
255 255 255
255 255 255
255 255 255
255 255 255
255 255 255
255 255 255
255 255 255
255 255 255
255 254 255
255 254 255
255 255 255
254 254 254
255 255 253
255 255 253
255 255 253
254 254 254
252 253 255
250 251 253
247 251 254
246 252 252
255 255 253
193 182 176
68 48 37
73 50 42
33 18 15
20 14 14
15 14 12
18 13 9
27 18 13
34 23 19
37 23 20
45 28 21
59 35 25
73 43 32
89 60 52
66 43 37
20 0 0
62 37 30
96 66 55
96 66 55
120 95 90
118 102 103
71 67 68
57 61 60
69 74 70
80 80 78
208 204 205
255 255 255
252 254 253
254 255 255
255 255 255
255 254 255
255 255 253
255 255 255
254 255 255
255 255 255
255 255 255
255 255 255
255 255 255
255 255 255
255 255 255
255 255 255
255 255 255
255 255 255
255 255 255
255 255 255
255 255 255
255 255 255
255 255 255
255 255 255
254 255 255
255 255 253
255 255 253
255 255 253
253 255 254
250 254 253
248 247 245
98 83 78
62 37 30
43 38 32
31 24 18
35 27 24
37 28 23
27 16 10
34 19 12
41 24 17
44 23 18
52 27 22
69 37 26
86 49 33
97 64 49
55 33 22
24 11 5
53 39 36
70 51 45
71 63 61
87 82 79
108 106 107
112 113 115
54 54 52
89 80 73
78 60 48
162 145 135
255 254 250
250 251 253
253 254 255
255 254 252
255 254 252
255 255 255
255 255 255
255 254 255
255 255 255
255 255 255
255 255 255
255 255 255
255 255 255
255 255 255
255 255 255
255 255 255
255 255 255
255 255 255
255 255 255
255 255 255
255 255 255
255 255 255
255 255 255
255 255 255
255 255 255
255 255 255
255 255 253
253 252 250
255 254 251
180 169 165
62 43 37
80 55 48
93 92 88
50 46 43
34 29 26
35 30 27
32 24 21
30 19 13
41 26 21
45 28 21
52 32 25
69 41 30
87 55 44
88 60 49
33 16 8
48 41 35
92 84 81
65 51 48
75 73 76
105 103 106
121 119 122
108 106 109
65 60 57
62 47 40
60 38 27
71 51 42
211 202 197
255 255 253
252 254 253
254 254 254
255 254 255
255 255 255
255 255 255
255 255 255
255 255 255
255 255 255
255 255 255
255 255 255
255 255 255
255 255 255
255 255 255
255 255 255
255 254 255
255 255 255
255 255 255
255 255 255
255 254 255
255 255 255
255 255 255
255 255 255
255 255 255
255 255 255
253 254 255
255 254 253
247 234 228
109 86 78
70 45 38
74 51 43
102 101 99
56 55 53
62 58 57
52 50 51
51 47 46
48 43 40
46 39 33
49 40 33
56 43 35
64 47 40
75 54 49
72 54 50
42 35 29
120 121 116
90 89 87
72 66 66
83 84 89
103 101 106
128 123 127
88 79 80
43 30 24
56 33 25
68 40 29
67 40 33
124 106 102
255 252 249
253 253 251
254 255 255
255 255 255
255 255 255
255 255 255
255 255 255
255 255 255
255 255 255
255 255 255
255 255 255
255 255 255
255 255 255
255 255 255
255 255 255
255 254 255
255 255 255
255 255 255
255 255 253
255 255 255
255 255 255
255 255 255
255 255 253
255 255 253
254 255 255
252 253 255
255 253 253
178 159 152
88 60 48
78 50 39
65 42 34
57 48 43
58 50 48
29 25 26
105 103 104
80 80 80
54 53 51
74 73 69
82 81 77
89 85 82
75 70 67
75 67 65
67 63 62
49 49 47
127 129 128
110 110 110
60 55 59
85 81 82
99 90 91
79 68 66
93 76 69
42 20 9
60 33 22
64 34 24
74 44 36
81 56 51
214 200 197
255 255 253
252 254 253
254 255 255
255 254 255
255 255 255
254 255 253
255 255 255
255 255 255
255 255 255
255 255 255
255 255 255
255 255 255
255 255 255
255 255 255
255 255 255
255 255 255
255 255 255
255 255 255
255 255 255
255 255 255
255 255 255
255 255 253
255 254 252
252 254 253
254 255 255
230 225 222
103 80 72
87 55 42
77 47 36
64 41 35
52 35 25
48 35 29
56 46 44
80 74 74
81 77 76
60 59 55
68 67 63
59 59 57
124 124 124
89 89 89
34 34 34
44 46 45
24 26 25
162 162 162
139 135 134
56 46 47
81 68 62
67 50 42
76 54 43
129 101 89
70 41 27
60 32 20
61 33 22
77 47 37
73 44 38
158 139 135
255 254 251
248 252 251
253 254 255
255 254 255
255 255 255
254 255 255
255 255 255
255 255 255
255 255 255
255 255 255
255 255 255
255 255 255
255 255 255
255 255 255
255 255 255
255 255 255
254 255 255
255 255 255
255 255 255
255 255 255
255 255 255
255 255 253
254 254 252
251 253 252
255 255 253
169 160 153
82 58 46
88 54 42
72 42 32
60 35 30
54 34 23
46 28 18
57 39 35
64 50 47
62 48 45
69 58 52
76 67 62
74 69 65
77 73 70
72 68 65
52 47 44
52 49 44
33 29 26
122 114 111
118 104 101
55 36 32
47 30 20
79 56 42
104 71 56
102 65 49
111 78 63
86 60 47
58 34 22
73 45 33
71 41 31
115 92 86
255 247 244
251 253 252
254 255 255
255 254 255
255 255 255
254 255 255
255 255 255
255 255 255
255 255 255
255 255 255
255 255 255
255 255 255
255 255 255
255 255 255
255 255 255
255 255 255
254 255 255
255 255 255
255 255 255
255 255 255
255 255 255
255 255 255
254 255 255
253 253 253
255 255 250
137 123 114
85 58 47
81 49 38
71 41 31
54 29 24
49 31 21
44 25 18
49 29 22
86 66 59
94 71 63
72 52 43
67 48 41
68 51 44
62 49 41
55 42 34
36 21 14
46 33 25
58 45 39
51 36 29
97 77 68
115 86 78
71 53 43
78 52 39
110 74 60
100 61 46
108 74 62
98 71 60
58 36 23
70 42 30
76 47 33
95 71 61
204 193 189
255 254 255
253 253 255
255 255 255
255 255 255
254 255 255
255 255 255
255 255 255
255 255 255
255 255 255
255 255 255
255 255 255
255 255 255
255 255 255
255 255 255
255 255 255
255 255 255
255 255 255
255 255 255
255 255 255
255 255 255
254 255 255
253 255 254
255 255 253
248 241 235
120 101 94
84 57 46
72 44 33
62 35 28
50 27 21
43 26 19
38 21 14
46 27 21
85 62 54
107 80 71
102 74 63
96 69 58
86 64 53
82 62 51
68 48 37
64 44 33
61 41 32
58 39 32
62 42 33
116 89 80
130 100 89
113 93 84
76 49 40
80 47 38
110 78 67
78 52 39
52 30 19
66 42 32
71 43 32
82 50 37
89 61 50
114 95 89
248 240 238
255 254 255
254 254 254
255 255 255
255 255 255
255 255 255
255 255 255
255 255 255
255 255 255
255 255 255
255 255 255
255 255 255
255 255 255
255 255 253
255 255 255
255 255 255
255 255 255
255 255 255
255 255 255
255 255 255
255 255 255
252 254 251
255 255 251
231 220 216
86 67 61
77 55 44
63 41 30
53 33 26
48 27 24
40 23 16
34 19 14
32 17 12
62 42 35
109 82 73
112 84 73
103 76 65
95 71 61
89 67 56
69 47 36
77 55 44
60 40 31
58 38 31
64 41 35
116 89 80
134 106 95
132 104 93
95 68 59
72 47 40
89 69 60
77 57 46
57 37 26
73 48 41
77 48 40
87 54 45
92 60 49
82 55 44
172 154 150
255 253 253
249 251 250
253 255 254
255 254 252
255 255 255
255 255 255
255 255 255
255 255 255
255 255 255
255 255 255
255 255 255
255 255 255
255 255 253
255 255 255
255 254 255
255 255 255
254 255 255
255 255 255
255 254 255
255 255 255
251 253 250
255 254 251
210 199 197
62 43 37
75 52 44
58 38 29
50 31 24
45 26 22
40 21 15
35 20 15
30 15 12
45 27 23
91 68 60
106 82 72
96 73 65
96 76 69
92 69 63
74 51 43
78 58 49
63 44 37
82 63 57
89 66 60
105 80 73
126 99 90
120 86 76
101 72 64
90 70 63
85 68 60
81 64 56
81 62 55
90 70 63
94 69 64
86 56 48
86 52 42
90 56 44
106 82 72
227 218 213
255 255 255
253 253 253
255 255 253
255 255 255
255 255 255
255 255 255
255 255 255
255 255 255
255 255 255
255 255 255
255 255 255
255 255 255
255 255 255
255 254 255
255 255 255
255 255 255
255 255 255
255 254 255
255 255 255
250 251 253
255 254 255
196 185 183
53 32 27
70 47 39
58 38 29
48 29 22
43 26 19
41 22 16
38 20 16
32 17 14
38 20 16
56 37 31
77 57 50
89 68 63
102 81 76
93 73 66
86 63 55
100 77 71
87 67 60
100 79 74
83 63 56
87 62 55
106 79 70
112 80 69
94 67 56
84 61 53
83 64 58
89 70 66
90 71 67
106 89 82
115 96 90
90 63 56
79 45 36
89 53 41
97 69 57
162 147 140
255 252 249
255 254 255
254 252 253
255 255 255
255 255 255
255 255 255
255 255 255
255 255 255
255 255 255
255 255 255
255 255 255
255 255 255
255 255 255
255 255 255
255 255 255
255 255 255
255 255 255
255 254 255
255 255 255
251 252 255
255 254 255
197 186 184
48 28 21
62 40 29
57 37 28
47 29 19
44 26 16
40 22 18
38 20 16
36 18 14
37 20 13
39 20 14
75 54 49
98 74 70
105 82 76
107 87 78
103 80 72
109 86 78
96 73 67
77 57 48
68 48 39
75 51 41
91 62 54
103 76 65
97 73 63
92 69 61
83 62 57
94 73 70
97 78 74
114 99 94
117 99 95
97 73 69
74 44 36
82 48 38
103 73 62
122 102 93
207 198 193
255 255 253
250 251 253
255 255 255
255 255 255
255 255 255
255 255 255
255 255 255
255 255 255
255 255 255
255 255 255
255 255 255
255 255 255
255 255 255
255 255 255
255 255 255
255 255 255
255 255 255
255 255 255
251 252 254
255 254 255
198 187 183
53 34 27
59 39 30
53 35 25
47 29 19
45 27 17
40 22 20
40 22 18
42 25 18
39 22 15
45 26 20
76 56 49
100 75 68
102 79 71
105 82 74
93 73 64
90 70 61
76 56 47
66 46 35
64 42 29
75 48 37
85 55 45
99 75 65
106 83 75
90 70 63
81 62 56
88 71 64
97 79 75
121 103 101
118 100 98
104 83 80
79 52 45
78 45 36
99 67 56
124 97 90
166 151 146
255 254 253
249 253 254
255 255 255
255 255 255
255 255 255
255 255 255
255 255 255
255 255 255
255 255 255
255 255 255
255 255 255
255 255 255
255 255 255
255 255 255
255 255 255
255 255 255
255 255 255
254 255 255
251 253 252
255 254 251
176 163 157
54 35 28
62 44 34
50 33 23
46 29 21
45 26 19
40 22 18
40 22 18
45 28 21
38 21 14
42 22 15
76 51 44
82 55 46
87 63 51
85 65 54
80 62 52
79 61 51
64 44 33
58 39 25
61 39 26
69 42 31
86 56 46
104 76 65
109 84 77
91 71 64
77 60 52
79 65 56
99 82 75
116 98 96
119 99 98
98 77 74
83 58 51
75 45 35
95 61 52
127 97 89
144 125 119
251 246 243
252 255 255
255 255 255
255 255 255
255 255 255
255 255 255
255 255 255
255 255 255
255 255 255
255 255 255
255 255 255
255 255 255
255 255 255
255 255 255
255 255 255
255 255 255
255 255 255
254 255 255
251 253 252
255 254 251
137 122 115
53 33 24
59 39 28
49 32 22
43 26 18
42 23 16
41 24 16
42 25 18
44 27 20
42 23 17
60 37 31
81 54 45
79 51 40
84 57 46
68 48 37
77 59 49
72 53 46
60 40 31
59 37 26
57 33 21
68 40 29
83 53 43
100 70 62
106 77 71
103 78 73
81 61 54
72 55 47
90 73 66
114 96 94
116 96 95
94 73 68
78 53 46
76 46 36
88 54 44
117 84 77
128 104 100
231 221 219
255 255 255
254 254 254
255 255 255
255 255 255
255 255 255
255 255 255
255 255 255
255 255 255
255 255 255
255 255 255
255 254 255
255 254 255
255 255 255
255 255 255
255 254 255
255 254 255
254 255 255
251 255 254
255 252 249
106 92 83
56 32 20
57 35 22
49 31 21
45 28 18
44 26 16
40 26 15
46 29 21
47 28 22
58 37 32
87 62 55
88 59 51
84 56 45
80 53 42
62 40 29
78 58 49
67 47 40
57 34 26
58 34 24
58 34 22
70 42 31
85 55 45
99 69 61
104 73 68
103 74 68
93 68 63
75 54 49
87 69 65
116 98 96
113 95 93
92 71 66
78 53 46
80 52 41
96 62 52
117 83 74
122 94 90
197 183 182
255 253 254
254 254 254
254 254 254
255 255 255
255 255 255
255 255 255
255 255 255
255 255 255
255 255 255
255 255 255
255 255 255
255 255 255
255 255 253
254 255 253
255 255 255
255 255 255
253 255 254
255 255 253
240 235 231
93 76 69
64 39 34
61 34 27
53 30 22
48 30 20
44 26 16
46 26 17
52 32 23
55 35 24
68 50 40
92 74 64
92 69 63
91 63 59
74 47 40
63 41 30
78 58 47
61 41 30
57 33 23
61 33 22
64 34 24
70 42 31
80 53 42
100 71 63
105 76 68
101 74 65
96 69 60
85 60 55
89 68 65
112 94 92
108 90 86
89 69 62
75 48 39
83 53 45
105 71 62
134 100 90
111 84 75
164 149 144
255 254 253
253 253 253
255 255 255
255 255 255
255 255 255
255 255 255
255 255 255
255 255 255
255 255 255
255 255 255
255 255 255
255 255 255
255 255 253
255 255 255
255 254 255
255 254 255
253 253 253
255 255 253
220 212 209
78 61 54
75 50 43
61 36 29
53 33 24
49 31 21
45 27 17
46 26 17
54 34 25
61 41 32
78 58 49
101 81 74
94 71 65
85 60 55
75 48 41
59 36 28
59 39 30
60 37 29
63 38 31
65 36 28
69 39 29
71 43 32
85 57 46
98 69 61
106 77 69
105 75 67
96 66 58
87 59 55
92 71 68
115 97 95
105 87 83
88 65 59
76 47 39
83 50 41
106 72 63
126 94 83
92 65 56
129 114 107
255 253 251
254 254 254
255 255 255
255 255 255
255 255 255
255 255 255
255 255 255
254 254 254
254 254 254
255 255 255
255 254 255
255 254 255
255 255 255
255 255 255
255 254 255
255 254 255
252 252 252
255 255 253
213 205 202
66 47 41
79 52 45
67 42 35
54 34 25
52 34 24
46 26 17
45 25 16
53 33 24
59 39 32
84 64 57
98 78 71
88 65 59
79 54 49
68 43 36
57 32 25
53 30 22
60 35 28
69 42 35
72 43 35
81 51 41
83 55 44
90 62 51
110 81 73
107 78 70
110 80 72
87 56 51
84 56 52
98 77 74
116 98 96
103 85 81
84 61 55
77 48 40
83 53 45
112 79 70
115 83 72
86 58 47
107 88 81
246 235 231
255 255 255
247 247 247
248 248 248
252 252 252
255 255 255
255 255 255
254 254 254
255 255 255
255 255 255
255 254 255
255 254 255
255 255 255
255 255 255
255 254 255
255 254 255
252 254 253
254 255 253
220 215 211
61 42 36
74 45 39
78 51 44
56 36 27
51 31 22
52 27 20
50 32 22
52 32 23
61 41 34
79 59 52
87 67 60
85 65 58
72 49 43
62 39 31
57 35 24
56 32 22
63 36 27
70 42 31
80 50 40
87 59 48
98 70 59
107 78 70
117 90 81
116 89 82
114 86 82
89 61 57
84 59 55
115 94 91
110 92 90
97 78 74
83 60 54
79 52 45
95 66 60
119 89 81
105 75 65
80 52 41
87 67 60
222 207 202
251 251 251
234 234 234
236 236 236
244 244 244
253 253 253
253 253 253
254 254 254
255 255 255
255 255 255
255 254 255
255 254 255
255 255 255
254 255 255
255 255 255
255 255 255
253 255 254
252 255 253
233 228 222
68 47 42
66 37 31
76 49 42
66 46 37
58 35 27
57 30 23
52 34 24
54 34 25
61 41 32
77 57 48
86 66 59
85 65 58
70 50 41
63 41 30
59 37 24
61 37 25
67 39 28
76 46 35
87 59 47
100 72 61
110 81 75
119 90 86
120 93 84
115 92 86
112 91 88
106 85 82
102 81 76
104 85 79
99 80 76
85 64 59
84 61 55
90 65 60
104 79 74
118 90 86
111 82 74
88 60 49
78 55 47
187 168 164
244 244 244
229 229 229
230 230 230
232 232 232
231 231 231
236 236 236
253 253 253
255 255 255
255 255 255
255 254 255
255 254 255
254 255 255
254 255 255
255 255 255
255 254 255
253 255 254
250 255 251
255 252 246
97 77 70
54 25 19
63 36 29
72 52 43
72 52 43
63 36 29
52 34 24
56 36 27
59 39 30
66 46 37
78 58 49
81 61 52
71 51 42
62 42 31
60 40 29
59 37 26
68 41 30
74 46 35
93 66 55
107 80 69
111 86 79
112 84 81
113 89 79
121 97 93
110 89 86
113 94 90
106 87 81
101 82 75
89 69 62
83 60 54
87 62 55
93 68 63
98 74 70
112 89 83
120 93 84
100 73 62
74 49 42
143 122 119
251 251 251
236 236 236
238 238 238
239 239 239
239 239 239
244 244 244
254 254 254
254 254 254
255 255 255
255 254 255
255 254 255
255 255 255
255 255 255
255 254 255
255 254 255
253 255 254
254 255 253
251 244 238
94 71 65
51 22 14
55 30 23
60 43 33
74 57 47
72 49 41
59 39 30
57 37 28
57 37 28
56 36 27
63 43 34
67 47 38
65 45 36
62 44 34
63 45 35
67 47 40
72 47 42
83 56 49
94 67 58
101 77 67
108 85 77
101 77 73
109 85 75
119 96 90
106 85 82
102 81 78
104 84 77
93 73 64
81 58 50
78 53 46
84 57 48
95 70 63
108 85 79
113 93 86
117 94 86
100 76 64
80 55 48
127 103 99
250 250 250
251 251 251
253 253 253
253 253 253
254 254 254
255 255 255
255 255 255
255 255 255
255 255 255
255 254 255
255 254 255
255 255 255
255 255 255
255 254 255
255 254 255
251 253 252
254 255 253
198 191 185
65 42 36
58 29 21
46 23 15
46 32 21
58 44 33
74 54 45
73 53 44
60 40 31
52 32 23
51 31 22
50 30 21
53 33 24
54 34 25
57 39 29
62 43 36
69 48 43
76 52 48
91 66 61
93 69 59
95 73 62
93 70 62
85 62 56
96 72 62
109 84 79
106 82 80
107 83 79
92 69 61
76 53 45
59 36 28
64 40 30
73 46 35
80 56 46
105 82 76
128 107 102
112 89 81
97 73 61
93 69 59
111 88 82
235 235 235
255 255 255
254 254 254
254 254 254
254 254 254
255 255 255
255 255 255
255 255 255
